<mxfile host="app.diagrams.net" agent="Mozilla/5.0 (Macintosh; Intel Mac OS X 10_15_7) AppleWebKit/605.1.15 (KHTML, like Gecko) Version/17.2.1 Safari/605.1.15" version="24.7.12">
  <diagram name="Page-1" id="3KVB3DmgRzyKd3N_RDOs">
    <mxGraphModel dx="489" dy="291" grid="1" gridSize="10" guides="1" tooltips="1" connect="1" arrows="1" fold="1" page="1" pageScale="1" pageWidth="827" pageHeight="1169" math="0" shadow="0">
      <root>
        <mxCell id="0" />
        <mxCell id="1" parent="0" />
        <mxCell id="nrTicbvTuZ5mIJKo8-Si-4" value="" style="rounded=0;whiteSpace=wrap;html=1;" vertex="1" parent="1">
          <mxGeometry x="120" y="120" width="120" height="200" as="geometry" />
        </mxCell>
        <mxCell id="nrTicbvTuZ5mIJKo8-Si-5" value="" style="ellipse;whiteSpace=wrap;html=1;aspect=fixed;" vertex="1" parent="1">
          <mxGeometry x="140" y="220" width="80" height="80" as="geometry" />
        </mxCell>
        <mxCell id="nrTicbvTuZ5mIJKo8-Si-6" value="" style="ellipse;whiteSpace=wrap;html=1;aspect=fixed;" vertex="1" parent="1">
          <mxGeometry x="155" y="150" width="50" height="50" as="geometry" />
        </mxCell>
        <mxCell id="nrTicbvTuZ5mIJKo8-Si-7" value="" style="rounded=0;whiteSpace=wrap;html=1;" vertex="1" parent="1">
          <mxGeometry x="600" y="120" width="120" height="200" as="geometry" />
        </mxCell>
        <mxCell id="nrTicbvTuZ5mIJKo8-Si-8" value="" style="ellipse;whiteSpace=wrap;html=1;aspect=fixed;" vertex="1" parent="1">
          <mxGeometry x="620" y="220" width="80" height="80" as="geometry" />
        </mxCell>
        <mxCell id="nrTicbvTuZ5mIJKo8-Si-9" value="" style="ellipse;whiteSpace=wrap;html=1;aspect=fixed;" vertex="1" parent="1">
          <mxGeometry x="635" y="150" width="50" height="50" as="geometry" />
        </mxCell>
        <mxCell id="nrTicbvTuZ5mIJKo8-Si-10" value="" style="whiteSpace=wrap;html=1;aspect=fixed;" vertex="1" parent="1">
          <mxGeometry x="280" y="240" width="280" height="280" as="geometry" />
        </mxCell>
        <mxCell id="nrTicbvTuZ5mIJKo8-Si-11" value="" style="ellipse;whiteSpace=wrap;html=1;aspect=fixed;" vertex="1" parent="1">
          <mxGeometry x="300" y="260" width="240" height="240" as="geometry" />
        </mxCell>
        <mxCell id="nrTicbvTuZ5mIJKo8-Si-12" value="&lt;font style=&quot;font-size: 24px;&quot;&gt;Bi-Amped Speaker&lt;/font&gt;" style="text;html=1;align=center;verticalAlign=middle;resizable=0;points=[];autosize=1;strokeColor=none;fillColor=none;" vertex="1" parent="1">
          <mxGeometry x="70" y="70" width="220" height="40" as="geometry" />
        </mxCell>
        <mxCell id="nrTicbvTuZ5mIJKo8-Si-13" value="&lt;font style=&quot;font-size: 24px;&quot;&gt;Bi-Amped Speaker&lt;/font&gt;" style="text;html=1;align=center;verticalAlign=middle;resizable=0;points=[];autosize=1;strokeColor=none;fillColor=none;" vertex="1" parent="1">
          <mxGeometry x="550" y="70" width="220" height="40" as="geometry" />
        </mxCell>
        <mxCell id="nrTicbvTuZ5mIJKo8-Si-14" value="&lt;font style=&quot;font-size: 24px;&quot;&gt;Subwoofer&lt;/font&gt;" style="text;html=1;align=center;verticalAlign=middle;resizable=0;points=[];autosize=1;strokeColor=none;fillColor=none;" vertex="1" parent="1">
          <mxGeometry x="350" y="190" width="140" height="40" as="geometry" />
        </mxCell>
        <mxCell id="nrTicbvTuZ5mIJKo8-Si-17" value="" style="rounded=0;whiteSpace=wrap;html=1;" vertex="1" parent="1">
          <mxGeometry x="405" y="660" width="30" height="140" as="geometry" />
        </mxCell>
        <mxCell id="nrTicbvTuZ5mIJKo8-Si-18" value="&lt;font style=&quot;font-size: 24px;&quot;&gt;Measurement Microphone&lt;/font&gt;" style="text;html=1;align=center;verticalAlign=middle;resizable=0;points=[];autosize=1;strokeColor=none;fillColor=none;" vertex="1" parent="1">
          <mxGeometry x="435" y="710" width="300" height="40" as="geometry" />
        </mxCell>
        <mxCell id="nrTicbvTuZ5mIJKo8-Si-19" value="" style="endArrow=none;dashed=1;html=1;rounded=0;exitX=0.5;exitY=0;exitDx=0;exitDy=0;" edge="1" parent="1" source="nrTicbvTuZ5mIJKo8-Si-17" target="nrTicbvTuZ5mIJKo8-Si-20">
          <mxGeometry width="50" height="50" relative="1" as="geometry">
            <mxPoint x="420" y="600" as="sourcePoint" />
            <mxPoint x="160" y="410" as="targetPoint" />
          </mxGeometry>
        </mxCell>
        <mxCell id="nrTicbvTuZ5mIJKo8-Si-20" value="" style="ellipse;whiteSpace=wrap;html=1;aspect=fixed;" vertex="1" parent="1">
          <mxGeometry x="175" y="255" width="10" height="10" as="geometry" />
        </mxCell>
        <mxCell id="nrTicbvTuZ5mIJKo8-Si-21" value="" style="ellipse;whiteSpace=wrap;html=1;aspect=fixed;" vertex="1" parent="1">
          <mxGeometry x="655" y="255" width="10" height="10" as="geometry" />
        </mxCell>
        <mxCell id="nrTicbvTuZ5mIJKo8-Si-22" value="" style="ellipse;whiteSpace=wrap;html=1;aspect=fixed;" vertex="1" parent="1">
          <mxGeometry x="175" y="170" width="10" height="10" as="geometry" />
        </mxCell>
        <mxCell id="nrTicbvTuZ5mIJKo8-Si-23" value="" style="ellipse;whiteSpace=wrap;html=1;aspect=fixed;" vertex="1" parent="1">
          <mxGeometry x="415" y="375" width="10" height="10" as="geometry" />
        </mxCell>
        <mxCell id="nrTicbvTuZ5mIJKo8-Si-24" value="" style="endArrow=none;dashed=1;html=1;rounded=0;entryX=1;entryY=1;entryDx=0;entryDy=0;exitX=0.5;exitY=0;exitDx=0;exitDy=0;" edge="1" parent="1" source="nrTicbvTuZ5mIJKo8-Si-17" target="nrTicbvTuZ5mIJKo8-Si-22">
          <mxGeometry width="50" height="50" relative="1" as="geometry">
            <mxPoint x="420" y="420" as="sourcePoint" />
            <mxPoint x="470" y="370" as="targetPoint" />
          </mxGeometry>
        </mxCell>
        <mxCell id="nrTicbvTuZ5mIJKo8-Si-25" value="" style="endArrow=none;dashed=1;html=1;rounded=0;exitX=0.5;exitY=0;exitDx=0;exitDy=0;" edge="1" parent="1" source="nrTicbvTuZ5mIJKo8-Si-17">
          <mxGeometry width="50" height="50" relative="1" as="geometry">
            <mxPoint x="370" y="500" as="sourcePoint" />
            <mxPoint x="420" y="380" as="targetPoint" />
          </mxGeometry>
        </mxCell>
        <mxCell id="nrTicbvTuZ5mIJKo8-Si-26" value="" style="rounded=0;whiteSpace=wrap;html=1;" vertex="1" parent="1">
          <mxGeometry x="40" y="980" width="280" height="50" as="geometry" />
        </mxCell>
        <mxCell id="nrTicbvTuZ5mIJKo8-Si-42" value="" style="endArrow=classic;html=1;rounded=0;exitX=0.28;exitY=0.003;exitDx=0;exitDy=0;exitPerimeter=0;entryX=0.857;entryY=0;entryDx=0;entryDy=0;entryPerimeter=0;" edge="1" parent="1" source="nrTicbvTuZ5mIJKo8-Si-26" target="nrTicbvTuZ5mIJKo8-Si-26">
          <mxGeometry width="50" height="50" relative="1" as="geometry">
            <mxPoint x="220" y="820" as="sourcePoint" />
            <mxPoint x="270" y="770" as="targetPoint" />
            <Array as="points">
              <mxPoint x="118" y="840" />
              <mxPoint x="280" y="840" />
            </Array>
          </mxGeometry>
        </mxCell>
        <mxCell id="nrTicbvTuZ5mIJKo8-Si-27" value="&lt;font style=&quot;font-size: 24px;&quot;&gt;Audio Interface&lt;/font&gt;" style="text;html=1;align=center;verticalAlign=middle;resizable=0;points=[];autosize=1;strokeColor=none;fillColor=none;" vertex="1" parent="1">
          <mxGeometry x="90" y="985" width="180" height="40" as="geometry" />
        </mxCell>
        <mxCell id="nrTicbvTuZ5mIJKo8-Si-30" value="" style="endArrow=classic;html=1;rounded=0;entryX=0;entryY=0.25;entryDx=0;entryDy=0;exitX=0.071;exitY=0;exitDx=0;exitDy=0;exitPerimeter=0;" edge="1" parent="1" source="nrTicbvTuZ5mIJKo8-Si-26" target="nrTicbvTuZ5mIJKo8-Si-4">
          <mxGeometry width="50" height="50" relative="1" as="geometry">
            <mxPoint x="60" y="640" as="sourcePoint" />
            <mxPoint x="60" y="180" as="targetPoint" />
            <Array as="points">
              <mxPoint x="60" y="170" />
            </Array>
          </mxGeometry>
        </mxCell>
        <mxCell id="nrTicbvTuZ5mIJKo8-Si-31" value="" style="endArrow=classic;html=1;rounded=0;entryX=0.012;entryY=0.696;entryDx=0;entryDy=0;entryPerimeter=0;exitX=0.138;exitY=0.006;exitDx=0;exitDy=0;exitPerimeter=0;" edge="1" parent="1" source="nrTicbvTuZ5mIJKo8-Si-26">
          <mxGeometry width="50" height="50" relative="1" as="geometry">
            <mxPoint x="78.56" y="730.8" as="sourcePoint" />
            <mxPoint x="120" y="259.99999999999994" as="targetPoint" />
            <Array as="points">
              <mxPoint x="80" y="260" />
            </Array>
          </mxGeometry>
        </mxCell>
        <mxCell id="nrTicbvTuZ5mIJKo8-Si-32" value="" style="endArrow=classic;html=1;rounded=0;entryX=0.012;entryY=0.696;entryDx=0;entryDy=0;entryPerimeter=0;exitX=0.205;exitY=-0.008;exitDx=0;exitDy=0;exitPerimeter=0;" edge="1" parent="1" source="nrTicbvTuZ5mIJKo8-Si-26">
          <mxGeometry width="50" height="50" relative="1" as="geometry">
            <mxPoint x="100" y="640" as="sourcePoint" />
            <mxPoint x="280" y="374.99999999999994" as="targetPoint" />
            <Array as="points">
              <mxPoint x="100" y="375" />
            </Array>
          </mxGeometry>
        </mxCell>
        <mxCell id="nrTicbvTuZ5mIJKo8-Si-33" value="" style="rounded=0;whiteSpace=wrap;html=1;" vertex="1" parent="1">
          <mxGeometry x="40" y="920" width="100" height="40" as="geometry" />
        </mxCell>
        <mxCell id="nrTicbvTuZ5mIJKo8-Si-39" value="" style="endArrow=none;html=1;rounded=0;" edge="1" parent="1">
          <mxGeometry width="50" height="50" relative="1" as="geometry">
            <mxPoint x="405" y="680" as="sourcePoint" />
            <mxPoint x="435" y="680" as="targetPoint" />
          </mxGeometry>
        </mxCell>
        <mxCell id="nrTicbvTuZ5mIJKo8-Si-41" value="&lt;font style=&quot;font-size: 18px;&quot;&gt;OUT&lt;/font&gt;" style="text;html=1;align=center;verticalAlign=middle;resizable=0;points=[];autosize=1;strokeColor=none;fillColor=none;" vertex="1" parent="1">
          <mxGeometry x="60" y="925" width="60" height="30" as="geometry" />
        </mxCell>
        <mxCell id="nrTicbvTuZ5mIJKo8-Si-44" value="" style="endArrow=classic;html=1;rounded=0;entryX=0.927;entryY=-0.004;entryDx=0;entryDy=0;entryPerimeter=0;exitX=0.5;exitY=1;exitDx=0;exitDy=0;" edge="1" parent="1" source="nrTicbvTuZ5mIJKo8-Si-17" target="nrTicbvTuZ5mIJKo8-Si-26">
          <mxGeometry width="50" height="50" relative="1" as="geometry">
            <mxPoint x="290" y="870" as="sourcePoint" />
            <mxPoint x="340" y="820" as="targetPoint" />
            <Array as="points">
              <mxPoint x="420" y="840" />
              <mxPoint x="300" y="840" />
            </Array>
          </mxGeometry>
        </mxCell>
        <mxCell id="nrTicbvTuZ5mIJKo8-Si-45" value="" style="rounded=0;whiteSpace=wrap;html=1;" vertex="1" parent="1">
          <mxGeometry x="220" y="920" width="100" height="40" as="geometry" />
        </mxCell>
        <mxCell id="nrTicbvTuZ5mIJKo8-Si-47" value="&lt;font style=&quot;font-size: 18px;&quot;&gt;IN&lt;/font&gt;" style="text;html=1;align=center;verticalAlign=middle;resizable=0;points=[];autosize=1;strokeColor=none;fillColor=none;" vertex="1" parent="1">
          <mxGeometry x="250" y="925" width="40" height="30" as="geometry" />
        </mxCell>
        <mxCell id="nrTicbvTuZ5mIJKo8-Si-48" value="" style="rounded=0;whiteSpace=wrap;html=1;" vertex="1" parent="1">
          <mxGeometry x="40" y="860" width="100" height="40" as="geometry" />
        </mxCell>
        <mxCell id="nrTicbvTuZ5mIJKo8-Si-51" value="&lt;font style=&quot;font-size: 20px;&quot;&gt;1 2 3 4&lt;/font&gt;" style="text;html=1;align=center;verticalAlign=middle;resizable=0;points=[];autosize=1;strokeColor=none;fillColor=none;movable=0;rotatable=0;deletable=0;editable=0;locked=1;connectable=0;" vertex="1" parent="1">
          <mxGeometry x="47" y="860" width="80" height="40" as="geometry" />
        </mxCell>
        <mxCell id="nrTicbvTuZ5mIJKo8-Si-52" value="" style="rounded=0;whiteSpace=wrap;html=1;" vertex="1" parent="1">
          <mxGeometry x="220" y="860" width="100" height="40" as="geometry" />
        </mxCell>
        <mxCell id="nrTicbvTuZ5mIJKo8-Si-55" value="&lt;font style=&quot;font-size: 20px;&quot;&gt;1 2&lt;/font&gt;" style="text;html=1;align=center;verticalAlign=middle;resizable=0;points=[];autosize=1;strokeColor=none;fillColor=none;" vertex="1" parent="1">
          <mxGeometry x="264" y="860" width="50" height="40" as="geometry" />
        </mxCell>
        <mxCell id="nrTicbvTuZ5mIJKo8-Si-58" value="&lt;font style=&quot;font-size: 14px;&quot;&gt;Analog Loopback&lt;/font&gt;" style="text;html=1;align=center;verticalAlign=middle;resizable=0;points=[];autosize=1;strokeColor=none;fillColor=none;" vertex="1" parent="1">
          <mxGeometry x="134" y="810" width="130" height="30" as="geometry" />
        </mxCell>
      </root>
    </mxGraphModel>
  </diagram>
</mxfile>
